<?xml version="1.0" encoding="iso-8859-1"?>
<!-- Generator: Adobe Illustrator 18.1.1, SVG Export Plug-In . SVG Version: 6.00 Build 0)  -->
<svg version="1.1" id="Capa_1" xmlns="http://www.w3.org/2000/svg" xmlns:xlink="http://www.w3.org/1999/xlink" x="0px" y="0px"
	 viewBox="0 0 329.198 329.198" style="enable-background:new 0 0 329.198 329.198;" xml:space="preserve">
<g>
	<path style="fill:#010002;" d="M324.853,158.693c-0.049-3.048-1.788-5.812-4.52-7.169L16.081,0.836
		c-2.878-1.423-6.365-1.008-8.844,1.073c-2.471,2.081-3.479,5.43-2.552,8.535l31.872,107.208c1.276,4.3,5.796,6.706,10.112,5.479
		c4.3-1.284,6.755-5.812,5.471-10.112L25.584,23.686l273.364,135.398L24.795,305.284l24.532-98.153
		c1.089-4.349-1.561-8.763-5.909-9.852c-4.349-1.081-8.763,1.553-9.86,5.909L4.588,319.103c-0.78,3.113,0.35,6.397,2.886,8.372
		c1.455,1.146,3.219,1.723,4.999,1.723c1.309,0,2.626-0.317,3.829-0.951l304.253-162.263
		C323.236,164.554,324.894,161.733,324.853,158.693z"/>
	<path style="fill:#010002;" d="M52.083,166.245h182.893c4.487,0,8.129-3.633,8.129-8.129c0-4.495-3.642-8.129-8.129-8.129H52.083
		c-4.487,0-8.129,3.633-8.129,8.129C43.954,162.611,47.596,166.245,52.083,166.245z"/>
</g>
<g>
</g>
<g>
</g>
<g>
</g>
<g>
</g>
<g>
</g>
<g>
</g>
<g>
</g>
<g>
</g>
<g>
</g>
<g>
</g>
<g>
</g>
<g>
</g>
<g>
</g>
<g>
</g>
<g>
</g>
</svg>
