<?xml version="1.0" encoding="UTF-8" standalone="no"?>
<svg
   xmlns:dc="http://purl.org/dc/elements/1.1/"
   xmlns:cc="http://creativecommons.org/ns#"
   xmlns:rdf="http://www.w3.org/1999/02/22-rdf-syntax-ns#"
   xmlns:svg="http://www.w3.org/2000/svg"
   xmlns="http://www.w3.org/2000/svg"
   height="481.883"
   width="481.88199"
   xml:space="preserve"
   viewBox="0 0 481.882 481.88301"
   y="0px"
   x="0px"
   id="Layer_1"
   version="1.1"><metadata
   id="metadata59"><rdf:RDF><cc:Work
       rdf:about=""><dc:format>image/svg+xml</dc:format><dc:type
         rdf:resource="http://purl.org/dc/dcmitype/StillImage" /></cc:Work></rdf:RDF></metadata><defs
   id="defs57" />
<circle
   id="circle2"
   r="138.541"
   cy="240.94099"
   cx="240.94099"
   style="fill:#fcd462" />
<g
   id="g22">
	<path
   id="path4"
   d="m 306.598,118.664 c 6.024,19.275 10.24,39.755 10.842,60.838 3.614,83.727 -53.007,157.816 -126.494,190.344 15.661,6.024 32.527,9.638 49.995,9.638 76.499,0 138.541,-62.042 138.541,-138.541 0,-53.009 -29.515,-98.788 -72.884,-122.279 z"
   style="fill:#f6c358" />
	<path
   id="path6"
   d="m 240.941,0 c -11.445,0 -20.48,9.035 -20.48,20.48 v 33.732 c 0,11.445 9.035,20.48 20.48,20.48 11.445,0 20.48,-9.035 20.48,-20.48 V 20.48 C 261.421,9.035 252.386,0 240.941,0 Z"
   style="fill:#f6c358" />
	<path
   id="path8"
   d="m 240.941,407.191 c -11.445,0 -20.48,9.035 -20.48,20.48 v 33.732 c 0,11.445 9.035,20.48 20.48,20.48 11.445,0 20.48,-9.035 20.48,-20.48 v -33.732 c 0,-11.445 -9.035,-20.48 -20.48,-20.48 z"
   style="fill:#f6c358" />
	<path
   id="path10"
   d="m 481.882,240.941 c 0,-11.445 -9.035,-20.48 -20.48,-20.48 H 427.67 c -11.445,0 -20.48,9.035 -20.48,20.48 0,11.445 9.035,20.48 20.48,20.48 h 33.732 c 11.445,0 20.48,-9.035 20.48,-20.48 z"
   style="fill:#f6c358" />
	<path
   id="path12"
   d="m 74.692,240.941 c 0,-11.445 -9.035,-20.48 -20.48,-20.48 H 20.48 c -11.445,0 -20.48,9.035 -20.48,20.48 0,11.445 9.035,20.48 20.48,20.48 h 33.732 c 11.444,0 20.48,-9.035 20.48,-20.48 z"
   style="fill:#f6c358" />
	<path
   id="path14"
   d="m 411.407,70.475 c -7.831,-7.831 -21.082,-7.831 -28.913,0 L 358.4,94.569 c -7.831,7.831 -7.831,21.082 0,28.913 7.831,7.831 21.082,7.831 28.913,0 l 24.094,-24.094 c 7.831,-7.83 7.831,-21.082 0,-28.913 z"
   style="fill:#f6c358" />
	<path
   id="path16"
   d="m 123.482,358.4 c -7.831,-7.831 -21.082,-7.831 -28.913,0 l -24.094,24.094 c -7.831,7.831 -7.831,21.082 0,28.913 7.831,7.831 21.082,7.831 28.913,0 l 24.094,-24.094 c 7.831,-7.831 7.831,-20.48 0,-28.913 z"
   style="fill:#f6c358" />
	<path
   id="path18"
   d="m 411.407,411.407 c 7.831,-7.831 7.831,-21.082 0,-28.913 L 387.313,358.4 c -7.831,-7.831 -21.082,-7.831 -28.913,0 -7.831,7.831 -7.831,21.082 0,28.913 l 24.094,24.094 c 7.831,7.831 21.082,7.831 28.913,0 z"
   style="fill:#f6c358" />
	<path
   id="path20"
   d="m 123.482,123.482 c 7.831,-7.831 7.831,-21.082 0,-28.913 L 99.388,70.475 c -7.831,-7.831 -21.082,-7.831 -28.913,0 -7.831,7.831 -7.831,21.082 0,28.913 l 24.094,24.094 c 7.831,7.831 20.48,7.831 28.913,0 z"
   style="fill:#f6c358" />
</g>
<g
   id="g24">
</g>
<g
   id="g26">
</g>
<g
   id="g28">
</g>
<g
   id="g30">
</g>
<g
   id="g32">
</g>
<g
   id="g34">
</g>
<g
   id="g36">
</g>
<g
   id="g38">
</g>
<g
   id="g40">
</g>
<g
   id="g42">
</g>
<g
   id="g44">
</g>
<g
   id="g46">
</g>
<g
   id="g48">
</g>
<g
   id="g50">
</g>
<g
   id="g52">
</g>
</svg>